HIERARCHY
ROOT Hips
{
	OFFSET 0.000000 0.000000 0.000000
	CHANNELS 6 Xposition Yposition Zposition Zrotation Yrotation Xrotation 
	JOINT LHipJoint
	{
		OFFSET 0.000000 0.000000 0.000000
		CHANNELS 3 Zrotation Yrotation Xrotation
		JOINT LeftUpLeg
		{
			OFFSET 1.363060 -1.794630 0.839290
			CHANNELS 3 Zrotation Yrotation Xrotation
			JOINT LeftLeg
			{
				OFFSET 2.448110 -6.726130 0.000000
				CHANNELS 3 Zrotation Yrotation Xrotation
				JOINT LeftFoot
				{
					OFFSET 2.562200 -7.039590 0.000000
					CHANNELS 3 Zrotation Yrotation Xrotation
					JOINT LeftToeBase
					{
						OFFSET 0.157640 -0.433110 2.322550
						CHANNELS 3 Zrotation Yrotation Xrotation
						End Site
						{
							OFFSET 0.000000 0.000000 0.000000
						}
					}
				}
			}
		}
	}
	JOINT RHipJoint
	{
		OFFSET 0.000000 0.000000 0.000000
		CHANNELS 3 Zrotation Yrotation Xrotation
		JOINT RightUpLeg
		{
			OFFSET -1.305520 -1.794630 0.839290
			CHANNELS 3 Zrotation Yrotation Xrotation
			JOINT RightLeg
			{
				OFFSET -2.542530 -6.985550 0.000000
				CHANNELS 3 Zrotation Yrotation Xrotation
				JOINT RightFoot
				{
					OFFSET -2.568260 -7.056230 0.000000
					CHANNELS 3 Zrotation Yrotation Xrotation
					JOINT RightToeBase
					{
						OFFSET -0.164730 -0.452590 2.363150
						CHANNELS 3 Zrotation Yrotation Xrotation
						End Site
						{
							OFFSET 0.000000 0.000000 0.000000
						}
					}
				}
			}
		}
	}
	JOINT LowerBack
	{
		OFFSET 0.000000 0.000000 0.000000
		CHANNELS 3 Zrotation Yrotation Xrotation
		JOINT Spine
		{
			OFFSET 0.028270 2.035590 -0.193380
			CHANNELS 3 Zrotation Yrotation Xrotation
			JOINT Spine1
			{
				OFFSET 0.056720 2.048850 -0.042750
				CHANNELS 3 Zrotation Yrotation Xrotation
				JOINT Neck
				{
					OFFSET 0.000000 0.000000 0.000000
					CHANNELS 3 Zrotation Yrotation Xrotation
					JOINT Neck1
					{
						OFFSET -0.054170 1.746240 0.172020
						CHANNELS 3 Zrotation Yrotation Xrotation
						JOINT Head
						{
							OFFSET 0.104070 1.761360 -0.123970
							CHANNELS 3 Zrotation Yrotation Xrotation
							End Site
							{
								OFFSET 0.000000 0.000000 0.000000
							}
						}
					}
				}
				JOINT LeftShoulder
				{
					OFFSET 0.000000 0.000000 0.000000
					CHANNELS 3 Zrotation Yrotation Xrotation
					JOINT LeftArm
					{
						OFFSET 3.362410 1.200890 -0.311210
						CHANNELS 3 Zrotation Yrotation Xrotation
						JOINT LeftForeArm
						{
							OFFSET 4.983000 -0.000000 -0.000000
							CHANNELS 3 Zrotation Yrotation Xrotation
							JOINT LeftHand
							{
								OFFSET 3.483560 -0.000000 -0.000000
								CHANNELS 3 Zrotation Yrotation Xrotation
								JOINT LeftFingerBase
								{
									OFFSET 0.000000 0.000000 0.000000
									CHANNELS 3 Zrotation Yrotation Xrotation
									JOINT LeftHandIndex1
									{
										OFFSET 0.715260 -0.000000 -0.000000
										CHANNELS 3 Zrotation Yrotation Xrotation
										End Site
										{
											OFFSET 0.000000 0.000000 0.000000
										}
									}
								}
								JOINT LThumb
								{
									OFFSET 0.000000 0.000000 0.000000
									CHANNELS 3 Zrotation Yrotation Xrotation
									End Site
									{
										OFFSET 0.000000 0.000000 0.000000
									}
								}
							}
						}
					}
				}
				JOINT RightShoulder
				{
					OFFSET 0.000000 0.000000 0.000000
					CHANNELS 3 Zrotation Yrotation Xrotation
					JOINT RightArm
					{
						OFFSET -3.136600 1.374050 -0.404650
						CHANNELS 3 Zrotation Yrotation Xrotation
						JOINT RightForeArm
						{
							OFFSET -5.241900 -0.000000 -0.000000
							CHANNELS 3 Zrotation Yrotation Xrotation
							JOINT RightHand
							{
								OFFSET -3.444170 -0.000000 -0.000000
								CHANNELS 3 Zrotation Yrotation Xrotation
								JOINT RightFingerBase
								{
									OFFSET 0.000000 0.000000 0.000000
									CHANNELS 3 Zrotation Yrotation Xrotation
									JOINT RightHandIndex1
									{
										OFFSET -0.622530 -0.000000 -0.000000
										CHANNELS 3 Zrotation Yrotation Xrotation
										End Site
										{
											OFFSET 0.000000 0.000000 0.000000
										}
									}
								}
								JOINT RThumb
								{
									OFFSET 0.000000 0.000000 0.000000
									CHANNELS 3 Zrotation Yrotation Xrotation
									End Site
									{
										OFFSET 0.000000 0.000000 0.000000
									}
								}
							}
						}
					}
				}
			}
		}
	}
}
MOTION
Frames: 4
Frame Time: 0.008333
13.454901 17.270102 -23.807440 12.446336 -20.312828 -6.917279 -3.948010 -0.123350 2.633682 -9.645201 1.460212 -19.229264 2.786796 12.409709 37.133258 -0.190849 5.581020 16.158950 0.917500 -6.103100 -17.083800 0.327212 0.636302 -0.384657 15.715968 1.142994 -39.591812 -16.132540 -20.649632 76.757880 2.872805 -10.676665 5.826700 0.000000 0.000000 0.000000 -4.600429 0.373212 17.331122 -0.000481 -0.502980 -2.291329 1.088891 -0.085561 -3.745588 -8.505794 -0.270447 -9.388218 4.065051 0.962184 8.040931 3.953400 0.049000 7.297200 -1.517146 2.570775 -2.393911 -76.182559 15.402833 40.303543 138.035028 -53.128381 -101.942138 0.589549 -1.352362 -43.741163 1.411751 9.087866 0.349100 -7.125000 0.000000 0.000000 -21.681800 39.487400 3.117700 -1.774266 -1.592573 -1.355610 80.628929 -21.330685 41.684546 -127.095814 55.497346 -95.714972 1.521234 -0.824958 -29.679583 -9.192032 24.296361 -4.419200 7.125000 0.000000 0.000000 11.870300 -4.381500 11.176000 
13.404916 17.284244 -23.338906 13.234131 -20.572087 -7.061340 -3.921320 -0.179517 2.819419 -10.790014 2.070701 -18.956486 2.895608 12.720593 38.950937 2.054182 -0.218164 17.486001 0.175300 -2.697300 -7.437200 0.416564 0.781377 -0.574409 16.346738 0.655257 -40.488087 -14.640955 -20.372204 72.568020 2.616890 -9.965833 6.653061 0.000000 0.000000 0.000000 -5.362021 0.098412 17.535453 0.041648 -1.005873 -2.326606 1.595573 -0.363726 -3.768730 -8.735973 -0.048694 -9.906930 3.917895 1.356377 8.270176 3.910900 0.186100 7.566700 -1.513876 2.485613 -2.406454 -76.207381 13.796651 38.716018 137.891837 -53.111445 -101.941159 0.544845 -1.371603 -43.259357 2.068958 9.096659 0.474800 -7.125000 0.000000 0.000000 -21.109900 39.540700 2.996800 -1.747168 -1.584734 -1.415978 80.606777 -22.142296 41.180636 -127.024486 55.568454 -95.682143 1.534665 -0.811347 -29.651750 -9.349984 24.332983 -4.502600 7.125000 0.000000 0.000000 11.764900 -4.332600 11.083300 
13.353853 17.299034 -22.895203 12.536420 -20.834279 -6.223361 -3.800029 -0.235939 2.800008 -10.295061 2.203402 -19.320680 3.277070 13.154955 40.811007 2.966370 -2.820024 20.110410 0.028400 1.088400 2.992100 0.543241 0.956816 -0.702972 18.574271 0.467692 -41.595799 -12.848104 -19.865127 67.600936 2.670336 -10.098181 6.727090 -0.045800 1.380500 -3.796500 -4.762040 -0.477357 17.486398 0.245629 -1.575980 -2.436269 2.277484 -0.684116 -4.040994 -9.236213 0.233271 -10.081488 3.726457 1.884183 8.349318 3.919900 0.369700 7.647600 -1.428687 2.399055 -2.414795 -76.870387 12.937162 36.642517 137.917823 -53.006843 -102.045862 0.507800 -1.299225 -43.739484 2.129502 8.144575 0.436300 -7.125000 0.000000 0.000000 -20.762600 38.578300 3.462700 -1.688730 -1.563937 -1.484568 80.097921 -22.965522 41.163739 -127.092753 55.570298 -95.737289 1.568717 -0.811123 -30.162379 -9.447043 24.817096 -4.635900 7.125000 0.000000 0.000000 11.716700 -3.820700 11.149800 
13.297931 17.338007 -22.424942 12.682395 -20.927256 -6.144703 -3.770238 -0.283138 2.858770 -10.540844 2.255352 -19.193934 3.608826 13.573778 42.772297 3.785872 -5.658853 23.671756 0.535900 4.690500 13.027800 0.770985 1.104986 -0.828090 19.704464 -0.331869 -41.812526 -10.910208 -19.139966 62.276227 2.275271 -9.042012 7.208756 -0.158200 2.562900 -7.064000 -4.754696 -0.732821 17.786727 0.314755 -1.906508 -2.487476 2.513116 -0.866746 -4.279569 -9.255251 0.302977 -10.215196 3.571718 2.000299 8.393224 3.815500 0.397300 7.740400 -1.384710 2.314437 -2.413593 -76.942520 12.150841 35.896711 138.297592 -52.718489 -102.312997 0.353506 -1.308010 -43.436595 3.936185 7.351729 0.681500 -7.125000 0.000000 0.000000 -18.944600 37.881700 3.470800 -1.685887 -1.545143 -1.507804 80.585841 -23.770617 40.277577 -127.608681 55.353303 -96.122966 1.554426 -0.784093 -30.915495 -9.190324 24.435011 -4.448200 7.125000 0.000000 0.000000 11.865900 -4.243600 11.202900 
